<svg xmlns="http://www.w3.org/2000/svg" width="168" height="166" viewBox="0 0 168 166">
  <g id="camera" transform="translate(-498 -593)">
    <g id="Ellipse_2" data-name="Ellipse 2" transform="translate(520 610)" fill="none" stroke="#060606" stroke-width="3">
      <circle cx="61" cy="61" r="61" stroke="none"/>
      <circle cx="61" cy="61" r="59.5" fill="none"/>
    </g>
    <g id="Polygon_1" data-name="Polygon 1" transform="translate(554 644)" fill="none">
      <path d="M41.25,0,55,27.5,41.25,55H13.75L0,27.5,13.75,0Z" stroke="none"/>
      <path d="M 15.60410308837891 3 L 3.354095458984375 27.5 L 15.60410308837891 52 L 39.39590454101563 52 L 51.64590454101563 27.5 L 39.39590454101563 3 L 15.60410308837891 3 M 13.75000381469727 0 L 41.25000381469727 0 L 55.00000381469727 27.5 L 41.25000381469727 55 L 13.75000381469727 55 L -7.62939453125e-06 27.5 L 13.75000381469727 0 Z" stroke="none" fill="#060606"/>
    </g>
    <line id="Line_13" data-name="Line 13" x2="41" transform="translate(593.5 645.5)" fill="none" stroke="#060606" stroke-width="3"/>
    <line id="Line_14" data-name="Line 14" y1="36" x2="19" transform="translate(567.5 611.5)" fill="none" stroke="#060606" stroke-width="3"/>
    <line id="Line_15" data-name="Line 15" x2="20" y2="39" transform="translate(606.5 669.5)" fill="none" stroke="#060606" stroke-width="3"/>
    <line id="Line_16" data-name="Line 16" x1="20" y2="41" transform="translate(578.5 689.5)" fill="none" stroke="#060606" stroke-width="3"/>
    <line id="Line_17" data-name="Line 17" x2="41" transform="translate(528.5 697.5)" fill="none" stroke="#060606" stroke-width="3"/>
    <line id="Line_18" data-name="Line 18" x1="21" y1="38" transform="translate(534.5 633.5)" fill="none" stroke="#060606" stroke-width="3"/>
    <g id="Path_3" data-name="Path 3" transform="translate(503 599)" fill="none" stroke-linecap="round">
      <path d="M16.745,0h123.5a16.745,16.745,0,0,1,16.745,16.745V136.057A16.745,16.745,0,0,1,140.243,152.8H16.745A16.745,16.745,0,0,1,0,136.057V16.745A16.745,16.745,0,0,1,16.745,0Z" stroke="none"/>
      <path d="M 16.74549865722656 2.999984741210938 C 13.07392883300781 2.999984741210938 9.62213134765625 4.429763793945313 7.02593994140625 7.025970458984375 C 4.429763793945313 9.622146606445313 2.999984741210938 13.07394409179688 2.999984741210938 16.7454833984375 L 2.999984741210938 56.07921600341797 L 2.999984741210938 136.0570983886719 C 2.999984741210938 139.7286682128906 4.429763793945313 143.1804656982422 7.02593994140625 145.7766418457031 C 9.62213134765625 148.3728332519531 13.07392883300781 149.8025970458984 16.74549865722656 149.8025970458984 L 140.2434997558594 149.8025970458984 C 143.9150390625 149.8025970458984 147.3668365478516 148.3728332519531 149.9630126953125 145.7766418457031 C 152.5592193603516 143.1804656982422 153.9889984130859 139.7286682128906 153.9889984130859 136.0570983886719 L 153.9889984130859 16.7454833984375 C 153.9889984130859 13.07394409179688 152.5592193603516 9.622146606445313 149.9630126953125 7.025970458984375 C 147.3668365478516 4.429763793945313 143.9150390625 2.999984741210938 140.2434997558594 2.999984741210938 L 16.74549865722656 2.999984741210938 M 16.74549865722656 -1.52587890625e-05 L 140.2434997558594 -1.52587890625e-05 C 149.4917602539063 -1.52587890625e-05 156.9889984130859 7.497207641601563 156.9889984130859 16.7454833984375 L 156.9889984130859 136.0570983886719 C 156.9889984130859 145.3053894042969 149.4917602539063 152.8025970458984 140.2434997558594 152.8025970458984 L 16.74549865722656 152.8025970458984 C 7.4971923828125 152.8025970458984 -1.52587890625e-05 145.3053894042969 -1.52587890625e-05 136.0570983886719 C -1.52587890625e-05 136.0570983886719 -1.52587890625e-05 85.9071044921875 -1.52587890625e-05 56.07921600341797 C -1.52587890625e-05 26.25128173828125 -1.52587890625e-05 16.7454833984375 -1.52587890625e-05 16.7454833984375 C -1.52587890625e-05 7.497207641601563 7.4971923828125 -1.52587890625e-05 16.74549865722656 -1.52587890625e-05 Z" stroke="none" fill="#060606"/>
    </g>
    <rect id="Rectangle_7" data-name="Rectangle 7" width="19" height="87" transform="translate(498 632)" fill="#fff"/>
    <rect id="Rectangle_8" data-name="Rectangle 8" width="19" height="87" transform="translate(647 632)" fill="#fff"/>
    <rect id="Rectangle_9" data-name="Rectangle 9" width="19" height="97" transform="translate(630 740) rotate(90)" fill="#fff"/>
    <rect id="Rectangle_10" data-name="Rectangle 10" width="14" height="97" transform="translate(630 593) rotate(90)" fill="#fff"/>
  </g>
</svg>
