<svg xmlns="http://www.w3.org/2000/svg" width="111" height="208" viewBox="0 0 111 208">
  <g id="phone_display" transform="translate(-294 -349)">
    <g id="Rectangle_1" data-name="Rectangle 1" transform="translate(294 349)" fill="none" stroke="#090909" stroke-width="3">
      <rect width="111" height="208" rx="17" stroke="none"/>
      <rect x="1.5" y="1.5" width="108" height="205" rx="15.5" fill="none"/>
    </g>
    <g id="Rectangle_2" data-name="Rectangle 2" transform="translate(327 535)" fill="none" stroke="#070707" stroke-width="2">
      <rect width="46" height="11" rx="5" stroke="none"/>
      <rect x="1" y="1" width="44" height="9" rx="4" fill="none"/>
    </g>
    <line id="Line_1" data-name="Line 1" x1="44" y2="95" transform="translate(349.5 358.5)" fill="none" stroke="#0a0a0a" stroke-width="2"/>
    <line id="Line_2" data-name="Line 2" x1="37" y2="81" transform="translate(305.5 465.5)" fill="none" stroke="#060505" stroke-width="2"/>
    <g id="Group_1" data-name="Group 1">
      <line id="Line_3" data-name="Line 3" x2="2" y2="10" transform="translate(393.5 358.5)" fill="none" stroke="#070707" stroke-width="2"/>
      <line id="Line_4" data-name="Line 4" x1="9" y2="6" transform="translate(384.5 358.5)" fill="none" stroke="#070707" stroke-width="2"/>
      <circle id="Ellipse_1" data-name="Ellipse 1" cx="1" cy="1" r="1" transform="translate(392.337 359.195) rotate(-79)"/>
    </g>
    <g id="Group_2" data-name="Group 2" transform="translate(630.064 967.942) rotate(-170)">
      <line id="Line_3-2" data-name="Line 3" x2="3.022" y2="9.68" transform="translate(393.5 358.5)" fill="none" stroke="#070707" stroke-width="2"/>
      <line id="Line_4-2" data-name="Line 4" x1="9" y2="6" transform="translate(384.5 358.5)" fill="none" stroke="#070707" stroke-width="2"/>
      <circle id="Ellipse_1-2" data-name="Ellipse 1" cx="1" cy="1" r="1" transform="translate(392.337 359.195) rotate(-79)"/>
    </g>
    <text id="Display" transform="translate(331 463)" fill="#040404" font-size="9" font-family="SegoeUI, Segoe UI"><tspan x="0" y="0">Display</tspan></text>
  </g>
</svg>
