<svg xmlns="http://www.w3.org/2000/svg" xmlns:xlink="http://www.w3.org/1999/xlink" width="180" height="177" viewBox="0 0 180 177">
  <defs>
    <clipPath id="clip-path">
      <rect width="15" height="117" fill="none"/>
    </clipPath>
  </defs>
  <g id="processor" transform="translate(-292.5 -592)">
    <g id="Rectangle_5" data-name="Rectangle 5" transform="translate(304 606)" fill="none" stroke="#060606" stroke-width="3">
      <rect width="156" height="148" rx="16" stroke="none"/>
      <rect x="1.5" y="1.5" width="153" height="145" rx="14.5" fill="none"/>
    </g>
    <g id="Rectangle_6" data-name="Rectangle 6" transform="translate(313 615)" fill="none" stroke="#060606" stroke-width="3">
      <rect width="139" height="131" rx="13" stroke="none"/>
      <rect x="1.5" y="1.5" width="136" height="128" rx="11.5" fill="none"/>
    </g>
    <g id="Repeat_Grid_1" data-name="Repeat Grid 1" transform="translate(457.5 626)" clip-path="url(#clip-path)">
      <g transform="translate(-457.5 -626)">
        <line id="Line_12" data-name="Line 12" x2="15" transform="translate(457.5 627.5)" fill="none" stroke="#060606" stroke-width="3"/>
      </g>
      <g transform="translate(-457.5 -615)">
        <line id="Line_12-2" data-name="Line 12" x2="15" transform="translate(457.5 627.5)" fill="none" stroke="#060606" stroke-width="3"/>
      </g>
      <g transform="translate(-457.5 -604)">
        <line id="Line_12-3" data-name="Line 12" x2="15" transform="translate(457.5 627.5)" fill="none" stroke="#060606" stroke-width="3"/>
      </g>
      <g transform="translate(-457.5 -593)">
        <line id="Line_12-4" data-name="Line 12" x2="15" transform="translate(457.5 627.5)" fill="none" stroke="#060606" stroke-width="3"/>
      </g>
      <g transform="translate(-457.5 -582)">
        <line id="Line_12-5" data-name="Line 12" x2="15" transform="translate(457.5 627.5)" fill="none" stroke="#060606" stroke-width="3"/>
      </g>
      <g transform="translate(-457.5 -571)">
        <line id="Line_12-6" data-name="Line 12" x2="15" transform="translate(457.5 627.5)" fill="none" stroke="#060606" stroke-width="3"/>
      </g>
      <g transform="translate(-457.5 -560)">
        <line id="Line_12-7" data-name="Line 12" x2="15" transform="translate(457.5 627.5)" fill="none" stroke="#060606" stroke-width="3"/>
      </g>
      <g transform="translate(-457.5 -549)">
        <line id="Line_12-8" data-name="Line 12" x2="15" transform="translate(457.5 627.5)" fill="none" stroke="#060606" stroke-width="3"/>
      </g>
      <g transform="translate(-457.5 -538)">
        <line id="Line_12-9" data-name="Line 12" x2="15" transform="translate(457.5 627.5)" fill="none" stroke="#060606" stroke-width="3"/>
      </g>
      <g transform="translate(-457.5 -527)">
        <line id="Line_12-10" data-name="Line 12" x2="15" transform="translate(457.5 627.5)" fill="none" stroke="#060606" stroke-width="3"/>
      </g>
      <g transform="translate(-457.5 -516)">
        <line id="Line_12-11" data-name="Line 12" x2="15" transform="translate(457.5 627.5)" fill="none" stroke="#060606" stroke-width="3"/>
      </g>
    </g>
    <g id="Repeat_Grid_2" data-name="Repeat Grid 2" transform="translate(292.5 629)" clip-path="url(#clip-path)">
      <g transform="translate(-457.5 -626)">
        <line id="Line_12-12" data-name="Line 12" x2="15" transform="translate(457.5 627.5)" fill="none" stroke="#060606" stroke-width="3"/>
      </g>
      <g transform="translate(-457.5 -615)">
        <line id="Line_12-13" data-name="Line 12" x2="15" transform="translate(457.5 627.5)" fill="none" stroke="#060606" stroke-width="3"/>
      </g>
      <g transform="translate(-457.5 -604)">
        <line id="Line_12-14" data-name="Line 12" x2="15" transform="translate(457.5 627.5)" fill="none" stroke="#060606" stroke-width="3"/>
      </g>
      <g transform="translate(-457.5 -593)">
        <line id="Line_12-15" data-name="Line 12" x2="15" transform="translate(457.5 627.5)" fill="none" stroke="#060606" stroke-width="3"/>
      </g>
      <g transform="translate(-457.5 -582)">
        <line id="Line_12-16" data-name="Line 12" x2="15" transform="translate(457.5 627.5)" fill="none" stroke="#060606" stroke-width="3"/>
      </g>
      <g transform="translate(-457.5 -571)">
        <line id="Line_12-17" data-name="Line 12" x2="15" transform="translate(457.5 627.5)" fill="none" stroke="#060606" stroke-width="3"/>
      </g>
      <g transform="translate(-457.5 -560)">
        <line id="Line_12-18" data-name="Line 12" x2="15" transform="translate(457.5 627.5)" fill="none" stroke="#060606" stroke-width="3"/>
      </g>
      <g transform="translate(-457.5 -549)">
        <line id="Line_12-19" data-name="Line 12" x2="15" transform="translate(457.5 627.5)" fill="none" stroke="#060606" stroke-width="3"/>
      </g>
      <g transform="translate(-457.5 -538)">
        <line id="Line_12-20" data-name="Line 12" x2="15" transform="translate(457.5 627.5)" fill="none" stroke="#060606" stroke-width="3"/>
      </g>
      <g transform="translate(-457.5 -527)">
        <line id="Line_12-21" data-name="Line 12" x2="15" transform="translate(457.5 627.5)" fill="none" stroke="#060606" stroke-width="3"/>
      </g>
      <g transform="translate(-457.5 -516)">
        <line id="Line_12-22" data-name="Line 12" x2="15" transform="translate(457.5 627.5)" fill="none" stroke="#060606" stroke-width="3"/>
      </g>
    </g>
    <g id="Repeat_Grid_3" data-name="Repeat Grid 3" transform="translate(441.5 754) rotate(90)" clip-path="url(#clip-path)">
      <g transform="translate(-457.5 -626)">
        <line id="Line_12-23" data-name="Line 12" x2="15" transform="translate(457.5 627.5)" fill="none" stroke="#060606" stroke-width="3"/>
      </g>
      <g transform="translate(-457.5 -615)">
        <line id="Line_12-24" data-name="Line 12" x2="15" transform="translate(457.5 627.5)" fill="none" stroke="#060606" stroke-width="3"/>
      </g>
      <g transform="translate(-457.5 -604)">
        <line id="Line_12-25" data-name="Line 12" x2="15" transform="translate(457.5 627.5)" fill="none" stroke="#060606" stroke-width="3"/>
      </g>
      <g transform="translate(-457.5 -593)">
        <line id="Line_12-26" data-name="Line 12" x2="15" transform="translate(457.5 627.5)" fill="none" stroke="#060606" stroke-width="3"/>
      </g>
      <g transform="translate(-457.5 -582)">
        <line id="Line_12-27" data-name="Line 12" x2="15" transform="translate(457.5 627.5)" fill="none" stroke="#060606" stroke-width="3"/>
      </g>
      <g transform="translate(-457.5 -571)">
        <line id="Line_12-28" data-name="Line 12" x2="15" transform="translate(457.5 627.5)" fill="none" stroke="#060606" stroke-width="3"/>
      </g>
      <g transform="translate(-457.5 -560)">
        <line id="Line_12-29" data-name="Line 12" x2="15" transform="translate(457.5 627.5)" fill="none" stroke="#060606" stroke-width="3"/>
      </g>
      <g transform="translate(-457.5 -549)">
        <line id="Line_12-30" data-name="Line 12" x2="15" transform="translate(457.5 627.5)" fill="none" stroke="#060606" stroke-width="3"/>
      </g>
      <g transform="translate(-457.5 -538)">
        <line id="Line_12-31" data-name="Line 12" x2="15" transform="translate(457.5 627.5)" fill="none" stroke="#060606" stroke-width="3"/>
      </g>
      <g transform="translate(-457.5 -527)">
        <line id="Line_12-32" data-name="Line 12" x2="15" transform="translate(457.5 627.5)" fill="none" stroke="#060606" stroke-width="3"/>
      </g>
      <g transform="translate(-457.5 -516)">
        <line id="Line_12-33" data-name="Line 12" x2="15" transform="translate(457.5 627.5)" fill="none" stroke="#060606" stroke-width="3"/>
      </g>
    </g>
    <g id="Repeat_Grid_4" data-name="Repeat Grid 4" transform="translate(440.5 592) rotate(90)" clip-path="url(#clip-path)">
      <g transform="translate(-457.5 -626)">
        <line id="Line_12-34" data-name="Line 12" x2="15" transform="translate(457.5 627.5)" fill="none" stroke="#060606" stroke-width="3"/>
      </g>
      <g transform="translate(-457.5 -615)">
        <line id="Line_12-35" data-name="Line 12" x2="15" transform="translate(457.5 627.5)" fill="none" stroke="#060606" stroke-width="3"/>
      </g>
      <g transform="translate(-457.5 -604)">
        <line id="Line_12-36" data-name="Line 12" x2="15" transform="translate(457.5 627.5)" fill="none" stroke="#060606" stroke-width="3"/>
      </g>
      <g transform="translate(-457.5 -593)">
        <line id="Line_12-37" data-name="Line 12" x2="15" transform="translate(457.5 627.5)" fill="none" stroke="#060606" stroke-width="3"/>
      </g>
      <g transform="translate(-457.5 -582)">
        <line id="Line_12-38" data-name="Line 12" x2="15" transform="translate(457.5 627.5)" fill="none" stroke="#060606" stroke-width="3"/>
      </g>
      <g transform="translate(-457.5 -571)">
        <line id="Line_12-39" data-name="Line 12" x2="15" transform="translate(457.5 627.5)" fill="none" stroke="#060606" stroke-width="3"/>
      </g>
      <g transform="translate(-457.5 -560)">
        <line id="Line_12-40" data-name="Line 12" x2="15" transform="translate(457.5 627.5)" fill="none" stroke="#060606" stroke-width="3"/>
      </g>
      <g transform="translate(-457.5 -549)">
        <line id="Line_12-41" data-name="Line 12" x2="15" transform="translate(457.5 627.5)" fill="none" stroke="#060606" stroke-width="3"/>
      </g>
      <g transform="translate(-457.5 -538)">
        <line id="Line_12-42" data-name="Line 12" x2="15" transform="translate(457.5 627.5)" fill="none" stroke="#060606" stroke-width="3"/>
      </g>
      <g transform="translate(-457.5 -527)">
        <line id="Line_12-43" data-name="Line 12" x2="15" transform="translate(457.5 627.5)" fill="none" stroke="#060606" stroke-width="3"/>
      </g>
      <g transform="translate(-457.5 -516)">
        <line id="Line_12-44" data-name="Line 12" x2="15" transform="translate(457.5 627.5)" fill="none" stroke="#060606" stroke-width="3"/>
      </g>
    </g>
    <text id="Speed" transform="translate(350 691)" fill="#040404" font-size="24" font-family="SegoeUI, Segoe UI"><tspan x="0" y="0">Speed</tspan></text>
  </g>
</svg>
